<mxfile host="Electron" agent="Mozilla/5.0 (X11; Linux x86_64) AppleWebKit/537.36 (KHTML, like Gecko) draw.io/26.1.1 Chrome/132.0.6834.210 Electron/34.3.3 Safari/537.36" version="26.1.1">
  <diagram name="Page-1" id="2YBvvXClWsGukQMizWep">
    <mxGraphModel dx="819" dy="477" grid="1" gridSize="10" guides="1" tooltips="1" connect="1" arrows="1" fold="1" page="1" pageScale="1" pageWidth="850" pageHeight="1100" math="0" shadow="0">
      <root>
        <mxCell id="0" />
        <mxCell id="1" parent="0" />
        <mxCell id="aM9ryv3xv72pqoxQDRHE-1" value=":Utilizator" style="shape=umlLifeline;perimeter=lifelinePerimeter;whiteSpace=wrap;html=1;container=0;dropTarget=0;collapsible=0;recursiveResize=0;outlineConnect=0;portConstraint=eastwest;newEdgeStyle={&quot;edgeStyle&quot;:&quot;elbowEdgeStyle&quot;,&quot;elbow&quot;:&quot;vertical&quot;,&quot;curved&quot;:0,&quot;rounded&quot;:0};" parent="1" vertex="1">
          <mxGeometry x="40" y="40" width="100" height="900" as="geometry" />
        </mxCell>
        <mxCell id="aM9ryv3xv72pqoxQDRHE-2" value="" style="html=1;points=[];perimeter=orthogonalPerimeter;outlineConnect=0;targetShapes=umlLifeline;portConstraint=eastwest;newEdgeStyle={&quot;edgeStyle&quot;:&quot;elbowEdgeStyle&quot;,&quot;elbow&quot;:&quot;vertical&quot;,&quot;curved&quot;:0,&quot;rounded&quot;:0};" parent="aM9ryv3xv72pqoxQDRHE-1" vertex="1">
          <mxGeometry x="45" y="70" width="10" height="800" as="geometry" />
        </mxCell>
        <mxCell id="aM9ryv3xv72pqoxQDRHE-3" value="deschidere" style="html=1;verticalAlign=bottom;startArrow=oval;endArrow=block;startSize=8;edgeStyle=elbowEdgeStyle;elbow=vertical;curved=0;rounded=0;" parent="aM9ryv3xv72pqoxQDRHE-1" target="aM9ryv3xv72pqoxQDRHE-2" edge="1">
          <mxGeometry relative="1" as="geometry">
            <mxPoint x="-15" y="70" as="sourcePoint" />
          </mxGeometry>
        </mxCell>
        <mxCell id="Ixd0pvLikrHPwnpA1XKU-14" value="" style="html=1;points=[];perimeter=orthogonalPerimeter;outlineConnect=0;targetShapes=umlLifeline;portConstraint=eastwest;newEdgeStyle={&quot;edgeStyle&quot;:&quot;elbowEdgeStyle&quot;,&quot;elbow&quot;:&quot;vertical&quot;,&quot;curved&quot;:0,&quot;rounded&quot;:0};" parent="aM9ryv3xv72pqoxQDRHE-1" vertex="1">
          <mxGeometry x="55" y="230" width="10" height="100" as="geometry" />
        </mxCell>
        <mxCell id="Ixd0pvLikrHPwnpA1XKU-27" value="" style="html=1;points=[];perimeter=orthogonalPerimeter;outlineConnect=0;targetShapes=umlLifeline;portConstraint=eastwest;newEdgeStyle={&quot;edgeStyle&quot;:&quot;elbowEdgeStyle&quot;,&quot;elbow&quot;:&quot;vertical&quot;,&quot;curved&quot;:0,&quot;rounded&quot;:0};" parent="aM9ryv3xv72pqoxQDRHE-1" vertex="1">
          <mxGeometry x="55" y="410" width="10" height="100" as="geometry" />
        </mxCell>
        <mxCell id="Ixd0pvLikrHPwnpA1XKU-34" value="" style="html=1;points=[];perimeter=orthogonalPerimeter;outlineConnect=0;targetShapes=umlLifeline;portConstraint=eastwest;newEdgeStyle={&quot;edgeStyle&quot;:&quot;elbowEdgeStyle&quot;,&quot;elbow&quot;:&quot;vertical&quot;,&quot;curved&quot;:0,&quot;rounded&quot;:0};" parent="aM9ryv3xv72pqoxQDRHE-1" vertex="1">
          <mxGeometry x="55" y="580" width="10" height="100" as="geometry" />
        </mxCell>
        <mxCell id="Ixd0pvLikrHPwnpA1XKU-38" value="" style="html=1;points=[];perimeter=orthogonalPerimeter;outlineConnect=0;targetShapes=umlLifeline;portConstraint=eastwest;newEdgeStyle={&quot;edgeStyle&quot;:&quot;elbowEdgeStyle&quot;,&quot;elbow&quot;:&quot;vertical&quot;,&quot;curved&quot;:0,&quot;rounded&quot;:0};" parent="aM9ryv3xv72pqoxQDRHE-1" vertex="1">
          <mxGeometry x="55" y="710" width="10" height="100" as="geometry" />
        </mxCell>
        <mxCell id="aM9ryv3xv72pqoxQDRHE-5" value=":Stocare internă" style="shape=umlLifeline;perimeter=lifelinePerimeter;whiteSpace=wrap;html=1;container=0;dropTarget=0;collapsible=0;recursiveResize=0;outlineConnect=0;portConstraint=eastwest;newEdgeStyle={&quot;edgeStyle&quot;:&quot;elbowEdgeStyle&quot;,&quot;elbow&quot;:&quot;vertical&quot;,&quot;curved&quot;:0,&quot;rounded&quot;:0};" parent="1" vertex="1">
          <mxGeometry x="220" y="40" width="100" height="900" as="geometry" />
        </mxCell>
        <mxCell id="aM9ryv3xv72pqoxQDRHE-6" value="" style="html=1;points=[];perimeter=orthogonalPerimeter;outlineConnect=0;targetShapes=umlLifeline;portConstraint=eastwest;newEdgeStyle={&quot;edgeStyle&quot;:&quot;elbowEdgeStyle&quot;,&quot;elbow&quot;:&quot;vertical&quot;,&quot;curved&quot;:0,&quot;rounded&quot;:0};" parent="aM9ryv3xv72pqoxQDRHE-5" vertex="1">
          <mxGeometry x="45" y="80" width="10" height="30" as="geometry" />
        </mxCell>
        <mxCell id="Ixd0pvLikrHPwnpA1XKU-7" value="" style="html=1;points=[];perimeter=orthogonalPerimeter;outlineConnect=0;targetShapes=umlLifeline;portConstraint=eastwest;newEdgeStyle={&quot;edgeStyle&quot;:&quot;elbowEdgeStyle&quot;,&quot;elbow&quot;:&quot;vertical&quot;,&quot;curved&quot;:0,&quot;rounded&quot;:0};" parent="aM9ryv3xv72pqoxQDRHE-5" vertex="1">
          <mxGeometry x="45" y="140" width="10" height="30" as="geometry" />
        </mxCell>
        <mxCell id="Ixd0pvLikrHPwnpA1XKU-10" value="" style="html=1;points=[];perimeter=orthogonalPerimeter;outlineConnect=0;targetShapes=umlLifeline;portConstraint=eastwest;newEdgeStyle={&quot;edgeStyle&quot;:&quot;elbowEdgeStyle&quot;,&quot;elbow&quot;:&quot;vertical&quot;,&quot;curved&quot;:0,&quot;rounded&quot;:0};" parent="aM9ryv3xv72pqoxQDRHE-5" vertex="1">
          <mxGeometry x="45" y="210" width="10" height="70" as="geometry" />
        </mxCell>
        <mxCell id="Ixd0pvLikrHPwnpA1XKU-24" value="" style="html=1;points=[];perimeter=orthogonalPerimeter;outlineConnect=0;targetShapes=umlLifeline;portConstraint=eastwest;newEdgeStyle={&quot;edgeStyle&quot;:&quot;elbowEdgeStyle&quot;,&quot;elbow&quot;:&quot;vertical&quot;,&quot;curved&quot;:0,&quot;rounded&quot;:0};" parent="aM9ryv3xv72pqoxQDRHE-5" vertex="1">
          <mxGeometry x="45" y="380" width="10" height="60" as="geometry" />
        </mxCell>
        <mxCell id="Ixd0pvLikrHPwnpA1XKU-32" value="" style="html=1;points=[];perimeter=orthogonalPerimeter;outlineConnect=0;targetShapes=umlLifeline;portConstraint=eastwest;newEdgeStyle={&quot;edgeStyle&quot;:&quot;elbowEdgeStyle&quot;,&quot;elbow&quot;:&quot;vertical&quot;,&quot;curved&quot;:0,&quot;rounded&quot;:0};" parent="aM9ryv3xv72pqoxQDRHE-5" vertex="1">
          <mxGeometry x="45" y="550" width="10" height="60" as="geometry" />
        </mxCell>
        <mxCell id="aM9ryv3xv72pqoxQDRHE-7" value="deschide ultimul fișier" style="html=1;verticalAlign=bottom;endArrow=block;edgeStyle=elbowEdgeStyle;elbow=horizontal;curved=0;rounded=0;" parent="1" source="aM9ryv3xv72pqoxQDRHE-2" target="aM9ryv3xv72pqoxQDRHE-6" edge="1">
          <mxGeometry relative="1" as="geometry">
            <mxPoint x="195" y="130" as="sourcePoint" />
            <Array as="points">
              <mxPoint x="180" y="120" />
            </Array>
          </mxGeometry>
        </mxCell>
        <mxCell id="aM9ryv3xv72pqoxQDRHE-8" value="conținut fișier" style="html=1;verticalAlign=bottom;endArrow=open;dashed=1;endSize=8;edgeStyle=elbowEdgeStyle;elbow=vertical;curved=0;rounded=0;" parent="1" source="aM9ryv3xv72pqoxQDRHE-6" target="aM9ryv3xv72pqoxQDRHE-2" edge="1">
          <mxGeometry relative="1" as="geometry">
            <mxPoint x="195" y="205" as="targetPoint" />
            <Array as="points">
              <mxPoint x="180" y="150" />
            </Array>
          </mxGeometry>
        </mxCell>
        <mxCell id="Ixd0pvLikrHPwnpA1XKU-1" value=":Stocare externă" style="shape=umlLifeline;perimeter=lifelinePerimeter;whiteSpace=wrap;html=1;container=0;dropTarget=0;collapsible=0;recursiveResize=0;outlineConnect=0;portConstraint=eastwest;newEdgeStyle={&quot;edgeStyle&quot;:&quot;elbowEdgeStyle&quot;,&quot;elbow&quot;:&quot;vertical&quot;,&quot;curved&quot;:0,&quot;rounded&quot;:0};" parent="1" vertex="1">
          <mxGeometry x="590" y="40" width="100" height="900" as="geometry" />
        </mxCell>
        <mxCell id="Ixd0pvLikrHPwnpA1XKU-42" value="" style="html=1;points=[];perimeter=orthogonalPerimeter;outlineConnect=0;targetShapes=umlLifeline;portConstraint=eastwest;newEdgeStyle={&quot;edgeStyle&quot;:&quot;elbowEdgeStyle&quot;,&quot;elbow&quot;:&quot;vertical&quot;,&quot;curved&quot;:0,&quot;rounded&quot;:0};" parent="Ixd0pvLikrHPwnpA1XKU-1" vertex="1">
          <mxGeometry x="45" y="840" width="10" height="40" as="geometry" />
        </mxCell>
        <mxCell id="Ixd0pvLikrHPwnpA1XKU-3" value=":Server" style="shape=umlLifeline;perimeter=lifelinePerimeter;whiteSpace=wrap;html=1;container=0;dropTarget=0;collapsible=0;recursiveResize=0;outlineConnect=0;portConstraint=eastwest;newEdgeStyle={&quot;edgeStyle&quot;:&quot;elbowEdgeStyle&quot;,&quot;elbow&quot;:&quot;vertical&quot;,&quot;curved&quot;:0,&quot;rounded&quot;:0};" parent="1" vertex="1">
          <mxGeometry x="400" y="40" width="100" height="900" as="geometry" />
        </mxCell>
        <mxCell id="Ixd0pvLikrHPwnpA1XKU-4" value="" style="html=1;points=[];perimeter=orthogonalPerimeter;outlineConnect=0;targetShapes=umlLifeline;portConstraint=eastwest;newEdgeStyle={&quot;edgeStyle&quot;:&quot;elbowEdgeStyle&quot;,&quot;elbow&quot;:&quot;vertical&quot;,&quot;curved&quot;:0,&quot;rounded&quot;:0};" parent="Ixd0pvLikrHPwnpA1XKU-3" vertex="1">
          <mxGeometry x="45" y="230" width="10" height="100" as="geometry" />
        </mxCell>
        <mxCell id="Ixd0pvLikrHPwnpA1XKU-29" value="" style="html=1;points=[];perimeter=orthogonalPerimeter;outlineConnect=0;targetShapes=umlLifeline;portConstraint=eastwest;newEdgeStyle={&quot;edgeStyle&quot;:&quot;elbowEdgeStyle&quot;,&quot;elbow&quot;:&quot;vertical&quot;,&quot;curved&quot;:0,&quot;rounded&quot;:0};" parent="Ixd0pvLikrHPwnpA1XKU-3" vertex="1">
          <mxGeometry x="45" y="410" width="10" height="100" as="geometry" />
        </mxCell>
        <mxCell id="Ixd0pvLikrHPwnpA1XKU-35" value="" style="html=1;points=[];perimeter=orthogonalPerimeter;outlineConnect=0;targetShapes=umlLifeline;portConstraint=eastwest;newEdgeStyle={&quot;edgeStyle&quot;:&quot;elbowEdgeStyle&quot;,&quot;elbow&quot;:&quot;vertical&quot;,&quot;curved&quot;:0,&quot;rounded&quot;:0};" parent="Ixd0pvLikrHPwnpA1XKU-3" vertex="1">
          <mxGeometry x="45" y="580" width="10" height="100" as="geometry" />
        </mxCell>
        <mxCell id="Ixd0pvLikrHPwnpA1XKU-39" value="" style="html=1;points=[];perimeter=orthogonalPerimeter;outlineConnect=0;targetShapes=umlLifeline;portConstraint=eastwest;newEdgeStyle={&quot;edgeStyle&quot;:&quot;elbowEdgeStyle&quot;,&quot;elbow&quot;:&quot;vertical&quot;,&quot;curved&quot;:0,&quot;rounded&quot;:0};" parent="Ixd0pvLikrHPwnpA1XKU-3" vertex="1">
          <mxGeometry x="45" y="710" width="10" height="100" as="geometry" />
        </mxCell>
        <mxCell id="Ixd0pvLikrHPwnpA1XKU-8" value="citește token autorizare" style="html=1;verticalAlign=bottom;endArrow=block;edgeStyle=elbowEdgeStyle;elbow=horizontal;curved=0;rounded=0;targetPortConstraint=north;entryX=0.003;entryY=-0.001;entryDx=0;entryDy=0;entryPerimeter=0;" parent="1" source="aM9ryv3xv72pqoxQDRHE-2" target="Ixd0pvLikrHPwnpA1XKU-7" edge="1">
          <mxGeometry relative="1" as="geometry">
            <mxPoint x="100" y="179.8" as="sourcePoint" />
            <Array as="points">
              <mxPoint x="185" y="179.8" />
            </Array>
          </mxGeometry>
        </mxCell>
        <mxCell id="Ixd0pvLikrHPwnpA1XKU-9" value="token autorizare" style="html=1;verticalAlign=bottom;endArrow=open;dashed=1;endSize=8;edgeStyle=elbowEdgeStyle;elbow=vertical;curved=0;rounded=0;" parent="1" source="Ixd0pvLikrHPwnpA1XKU-7" target="aM9ryv3xv72pqoxQDRHE-2" edge="1">
          <mxGeometry relative="1" as="geometry">
            <mxPoint x="100" y="209.8" as="targetPoint" />
            <Array as="points">
              <mxPoint x="185" y="209.8" />
            </Array>
          </mxGeometry>
        </mxCell>
        <mxCell id="Ixd0pvLikrHPwnpA1XKU-12" value="salvare modificări" style="html=1;verticalAlign=bottom;endArrow=block;edgeStyle=elbowEdgeStyle;elbow=horizontal;curved=0;rounded=0;targetPortConstraint=north;entryX=-0.001;entryY=0.003;entryDx=0;entryDy=0;entryPerimeter=0;" parent="1" source="aM9ryv3xv72pqoxQDRHE-2" target="Ixd0pvLikrHPwnpA1XKU-10" edge="1">
          <mxGeometry x="-0.0007" relative="1" as="geometry">
            <mxPoint x="100" y="250" as="sourcePoint" />
            <Array as="points">
              <mxPoint x="190" y="249.8" />
            </Array>
            <mxPoint x="270" y="250" as="targetPoint" />
            <mxPoint as="offset" />
          </mxGeometry>
        </mxCell>
        <mxCell id="Ixd0pvLikrHPwnpA1XKU-13" value="răspuns" style="html=1;verticalAlign=bottom;endArrow=open;dashed=1;endSize=8;edgeStyle=elbowEdgeStyle;elbow=vertical;curved=0;rounded=0;" parent="1" source="Ixd0pvLikrHPwnpA1XKU-10" edge="1">
          <mxGeometry relative="1" as="geometry">
            <mxPoint x="95" y="320" as="targetPoint" />
            <Array as="points">
              <mxPoint x="190" y="320" />
            </Array>
            <mxPoint x="265.03" y="359.7199999999999" as="sourcePoint" />
          </mxGeometry>
        </mxCell>
        <mxCell id="Ixd0pvLikrHPwnpA1XKU-15" value="salvare modificări" style="html=1;verticalAlign=bottom;endArrow=block;edgeStyle=elbowEdgeStyle;elbow=horizontal;curved=0;rounded=0;targetPortConstraint=north;entryX=0;entryY=0.003;entryDx=0;entryDy=0;entryPerimeter=0;" parent="1" target="Ixd0pvLikrHPwnpA1XKU-4" edge="1">
          <mxGeometry x="0.5003" relative="1" as="geometry">
            <mxPoint x="105" y="270" as="sourcePoint" />
            <Array as="points">
              <mxPoint x="200" y="269.8" />
            </Array>
            <mxPoint x="275" y="270" as="targetPoint" />
            <mxPoint as="offset" />
          </mxGeometry>
        </mxCell>
        <mxCell id="Ixd0pvLikrHPwnpA1XKU-16" value="răspuns" style="html=1;verticalAlign=bottom;endArrow=open;dashed=1;endSize=8;edgeStyle=elbowEdgeStyle;elbow=vertical;curved=0;rounded=0;" parent="1" source="Ixd0pvLikrHPwnpA1XKU-4" edge="1">
          <mxGeometry x="-0.4783" relative="1" as="geometry">
            <mxPoint x="105" y="370" as="targetPoint" />
            <Array as="points">
              <mxPoint x="200" y="370" />
            </Array>
            <mxPoint x="275" y="370" as="sourcePoint" />
            <mxPoint as="offset" />
          </mxGeometry>
        </mxCell>
        <mxCell id="Ixd0pvLikrHPwnpA1XKU-25" value="șterge fișier" style="html=1;verticalAlign=bottom;endArrow=block;edgeStyle=elbowEdgeStyle;elbow=horizontal;curved=0;rounded=0;targetPortConstraint=north;entryX=-0.002;entryY=0;entryDx=0;entryDy=0;entryPerimeter=0;" parent="1" source="aM9ryv3xv72pqoxQDRHE-2" target="Ixd0pvLikrHPwnpA1XKU-24" edge="1">
          <mxGeometry relative="1" as="geometry">
            <mxPoint x="100" y="420" as="sourcePoint" />
            <Array as="points">
              <mxPoint x="185" y="419.8" />
            </Array>
            <mxPoint x="260" y="420" as="targetPoint" />
          </mxGeometry>
        </mxCell>
        <mxCell id="Ixd0pvLikrHPwnpA1XKU-26" value="răspuns" style="html=1;verticalAlign=bottom;endArrow=open;dashed=1;endSize=8;edgeStyle=elbowEdgeStyle;elbow=vertical;curved=0;rounded=0;" parent="1" source="Ixd0pvLikrHPwnpA1XKU-24" target="aM9ryv3xv72pqoxQDRHE-2" edge="1">
          <mxGeometry x="0.0017" relative="1" as="geometry">
            <mxPoint x="90" y="480" as="targetPoint" />
            <Array as="points">
              <mxPoint x="185" y="480" />
            </Array>
            <mxPoint x="260" y="480" as="sourcePoint" />
            <mxPoint as="offset" />
          </mxGeometry>
        </mxCell>
        <mxCell id="Ixd0pvLikrHPwnpA1XKU-28" value="șterge fișier" style="html=1;verticalAlign=bottom;endArrow=block;edgeStyle=elbowEdgeStyle;elbow=horizontal;curved=0;rounded=0;targetPortConstraint=north;exitX=1;exitY=0;exitDx=0;exitDy=0;exitPerimeter=0;entryX=0;entryY=0.002;entryDx=0;entryDy=0;entryPerimeter=0;" parent="1" source="Ixd0pvLikrHPwnpA1XKU-27" target="Ixd0pvLikrHPwnpA1XKU-29" edge="1">
          <mxGeometry x="0.4999" relative="1" as="geometry">
            <mxPoint x="110" y="450" as="sourcePoint" />
            <Array as="points">
              <mxPoint x="195" y="449.8" />
            </Array>
            <mxPoint x="620" y="450" as="targetPoint" />
            <mxPoint as="offset" />
          </mxGeometry>
        </mxCell>
        <mxCell id="Ixd0pvLikrHPwnpA1XKU-30" value="răspuns" style="html=1;verticalAlign=bottom;endArrow=open;dashed=1;endSize=8;edgeStyle=elbowEdgeStyle;elbow=vertical;curved=0;rounded=0;" parent="1" source="Ixd0pvLikrHPwnpA1XKU-29" edge="1">
          <mxGeometry x="-0.5" relative="1" as="geometry">
            <mxPoint x="105" y="550" as="targetPoint" />
            <Array as="points">
              <mxPoint x="195" y="550" />
            </Array>
            <mxPoint x="275" y="550" as="sourcePoint" />
            <mxPoint as="offset" />
          </mxGeometry>
        </mxCell>
        <mxCell id="Ixd0pvLikrHPwnpA1XKU-31" value="creează fișier" style="html=1;verticalAlign=bottom;endArrow=block;edgeStyle=elbowEdgeStyle;elbow=horizontal;curved=0;rounded=0;targetPortConstraint=north;entryX=-0.002;entryY=0;entryDx=0;entryDy=0;entryPerimeter=0;" parent="1" source="aM9ryv3xv72pqoxQDRHE-2" target="Ixd0pvLikrHPwnpA1XKU-32" edge="1">
          <mxGeometry relative="1" as="geometry">
            <mxPoint x="100" y="590" as="sourcePoint" />
            <Array as="points">
              <mxPoint x="190" y="589.8" />
            </Array>
            <mxPoint x="270" y="590" as="targetPoint" />
          </mxGeometry>
        </mxCell>
        <mxCell id="Ixd0pvLikrHPwnpA1XKU-33" value="răspuns" style="html=1;verticalAlign=bottom;endArrow=open;dashed=1;endSize=8;edgeStyle=elbowEdgeStyle;elbow=vertical;curved=0;rounded=0;" parent="1" source="Ixd0pvLikrHPwnpA1XKU-32" target="aM9ryv3xv72pqoxQDRHE-2" edge="1">
          <mxGeometry relative="1" as="geometry">
            <mxPoint x="100" y="650" as="targetPoint" />
            <Array as="points">
              <mxPoint x="190" y="650" />
            </Array>
            <mxPoint x="260" y="650" as="sourcePoint" />
            <mxPoint as="offset" />
          </mxGeometry>
        </mxCell>
        <mxCell id="Ixd0pvLikrHPwnpA1XKU-36" value="creează fișier" style="html=1;verticalAlign=bottom;endArrow=block;edgeStyle=elbowEdgeStyle;elbow=horizontal;curved=0;rounded=0;targetPortConstraint=north;exitX=1.006;exitY=0.002;exitDx=0;exitDy=0;exitPerimeter=0;entryX=-0.009;entryY=-0.001;entryDx=0;entryDy=0;entryPerimeter=0;" parent="1" source="Ixd0pvLikrHPwnpA1XKU-34" target="Ixd0pvLikrHPwnpA1XKU-35" edge="1">
          <mxGeometry x="0.5005" relative="1" as="geometry">
            <mxPoint x="105" y="620" as="sourcePoint" />
            <Array as="points">
              <mxPoint x="200" y="619.8" />
            </Array>
            <mxPoint x="275" y="620" as="targetPoint" />
            <mxPoint as="offset" />
          </mxGeometry>
        </mxCell>
        <mxCell id="Ixd0pvLikrHPwnpA1XKU-37" value="răspuns" style="html=1;verticalAlign=bottom;endArrow=open;dashed=1;endSize=8;edgeStyle=elbowEdgeStyle;elbow=vertical;curved=0;rounded=0;" parent="1" source="Ixd0pvLikrHPwnpA1XKU-35" target="Ixd0pvLikrHPwnpA1XKU-34" edge="1">
          <mxGeometry x="-0.5" relative="1" as="geometry">
            <mxPoint x="115" y="720" as="targetPoint" />
            <Array as="points">
              <mxPoint x="205" y="720" />
            </Array>
            <mxPoint x="455" y="720" as="sourcePoint" />
            <mxPoint as="offset" />
          </mxGeometry>
        </mxCell>
        <mxCell id="Ixd0pvLikrHPwnpA1XKU-40" value="management cod" style="html=1;verticalAlign=bottom;endArrow=block;edgeStyle=elbowEdgeStyle;elbow=horizontal;curved=0;rounded=0;targetPortConstraint=north;entryX=0;entryY=-0.001;entryDx=0;entryDy=0;entryPerimeter=0;" parent="1" target="Ixd0pvLikrHPwnpA1XKU-39" edge="1">
          <mxGeometry x="0.5005" relative="1" as="geometry">
            <mxPoint x="105" y="750" as="sourcePoint" />
            <Array as="points">
              <mxPoint x="195" y="749.8" />
            </Array>
            <mxPoint x="440" y="750" as="targetPoint" />
            <mxPoint as="offset" />
          </mxGeometry>
        </mxCell>
        <mxCell id="Ixd0pvLikrHPwnpA1XKU-41" value="răspuns" style="html=1;verticalAlign=bottom;endArrow=open;dashed=1;endSize=8;edgeStyle=elbowEdgeStyle;elbow=vertical;curved=0;rounded=0;" parent="1" source="Ixd0pvLikrHPwnpA1XKU-39" target="Ixd0pvLikrHPwnpA1XKU-38" edge="1">
          <mxGeometry x="-0.5" relative="1" as="geometry">
            <mxPoint x="110" y="850" as="targetPoint" />
            <Array as="points">
              <mxPoint x="200" y="850" />
            </Array>
            <mxPoint x="440" y="850" as="sourcePoint" />
            <mxPoint as="offset" />
          </mxGeometry>
        </mxCell>
        <mxCell id="Ixd0pvLikrHPwnpA1XKU-43" value="exportă fișier" style="html=1;verticalAlign=bottom;endArrow=block;edgeStyle=elbowEdgeStyle;elbow=horizontal;curved=0;rounded=0;targetPortConstraint=north;entryX=-0.005;entryY=-0.003;entryDx=0;entryDy=0;entryPerimeter=0;" parent="1" source="aM9ryv3xv72pqoxQDRHE-2" target="Ixd0pvLikrHPwnpA1XKU-42" edge="1">
          <mxGeometry x="0.7224" relative="1" as="geometry">
            <mxPoint x="100" y="880" as="sourcePoint" />
            <Array as="points">
              <mxPoint x="190" y="879.8" />
            </Array>
            <mxPoint x="440" y="880" as="targetPoint" />
            <mxPoint as="offset" />
          </mxGeometry>
        </mxCell>
      </root>
    </mxGraphModel>
  </diagram>
</mxfile>
